<?xml version="1.0" encoding="UTF-8"?>
<svg xmlns="http://www.w3.org/2000/svg" version="1.1" viewBox="0 0 7.3 9.2">
  <defs>
    <style>
      .cls-1 {
        fill: none;
      }

      .cls-2 {
        fill-rule: evenodd;
      }
    </style>
  </defs>
  <!-- Generator: Adobe Illustrator 28.7.1, SVG Export Plug-In . SVG Version: 1.2.0 Build 142)  -->
  <g>
    <g id="Layer_1">
      <g>
        <path class="cls-2" d="M2,4.7h0ZM3.5,4.2s0,0,0,0c-.1-.1-.2-.2-.3-.4,0,0,0,0,0,0-.3.2-.5.5-.7.6-.2.2-.3.2-.4.2,0,0,0,0,0,0h0c0,0-.2-.1-.3-.1-.1,0-.2,0-.3.1,0,0,0,0,0,0,0,0-.1.2-.1.3,0,.1,0,.2.1.3,0,0,0,0,0,0,0,0,.1,0,.2.1h0c0,0,.2,0,.2,0,0,0,0,0,0,0,0,0,0,0,0,0h0c0,0,0,.2,0,.2,0,0,0,.1.1.2,0,0,0,0,0,0,0,0,.2.1.3.1.1,0,.2,0,.3-.1,0,0,0,0,0,0,0,0,.1-.2.1-.3,0-.1,0-.2-.1-.3h0s0,0,0,0c0,0,0-.2.2-.4.2-.2.4-.4.6-.7ZM3.7,4c.1-.1.3-.2.4-.4-.1-.1-.2-.2-.4-.4-.1.1-.2.2-.4.4.1.1.2.2.3.4ZM4.1,3.6c.4-.4.8-.7,1-.9.1,0,.1,0,.2,0,0,0,0,0,0,0,0,0,.2,0,.3,0,.1,0,.2,0,.3-.1,0,0,.1-.2.1-.3,0-.1,0-.2-.1-.3,0,0-.1,0-.2-.1,0,0-.2,0-.2,0,0,0,0,0,0,0,0,0,0,0,0,0h0c0,0,0-.2,0-.2,0,0,0-.1-.1-.2,0,0,0,0,0,0,0,0-.2-.1-.3-.1-.1,0-.2,0-.3.1,0,0,0,0,0,0,0,0-.1.2-.1.3,0,.1,0,.2,0,.3,0,0,0,0,0,0,0,0,0,0,0,0,0,0,0,0,0,.2h0c-.1.2-.5.6-.9,1,.1.1.3.2.4.4Z"/>
        <path class="cls-2" d="M2.7,2h0ZM3.1,3.5c.6.6,1.3,1.4,1.5,1.7,0,.1,0,.1,0,.2,0,0,0,0,0,0,0,0,0,.2,0,.3,0,.1,0,.2.1.3,0,0,.2.1.3.1.1,0,.2,0,.3-.1,0,0,0-.1.1-.2,0,0,0-.2,0-.2,0,0,0,0,0,0,0,0,0,0,0,0h0c0,0,.2,0,.2,0,0,0,.1,0,.2-.1,0,0,0,0,0,0,0,0,.1-.2.1-.3,0-.1,0-.2-.1-.3,0,0,0,0,0,0,0,0-.2-.1-.3-.1-.1,0-.2,0-.3,0,0,0,0,0,0,0,0,0,0,0,0,0,0,0,0,0-.2,0h0c-.3-.2-1-.9-1.6-1.5-.2-.3-.5-.5-.6-.7-.2-.2-.2-.3-.2-.4,0,0,0,0,0,0h0c0,0,.1-.2.1-.3,0-.1,0-.2-.1-.3,0,0,0,0,0,0,0,0-.2-.1-.3-.1-.1,0-.2,0-.3.1,0,0,0,0,0,0,0,0,0,.1-.1.2h0c0,0,0,.2,0,.2,0,0,0,0,0,0,0,0,0,0,0,0h0c0,0-.2,0-.2,0,0,0-.1,0-.2.1,0,0,0,0,0,0,0,0-.1.2-.1.3,0,.1,0,.2.1.3,0,0,0,0,0,0,0,0,.2.1.3.1.1,0,.2,0,.3-.1h0s0,0,0,0c0,0,.2,0,.4.2.2.2.4.4.7.6Z"/>
      </g>
      <rect class="cls-1" width="7.3" height="7.3"/>
    </g>
  </g>
</svg>