<?xml version="1.0" encoding="UTF-8"?>
<svg xmlns="http://www.w3.org/2000/svg" version="1.1" viewBox="0 0 110 135">
  <!-- Generator: Adobe Illustrator 28.7.1, SVG Export Plug-In . SVG Version: 1.2.0 Build 142)  -->
  <g>
    <g id="Layer_1">
      <path d="M91.3,71.8c2.8-5.6,4.4-11.8,4.4-18.5,0-22.4-18.1-40.6-40.4-40.7-21.8-.2-40.3,17.4-41.1,39.2-.3,7.2,1.4,14.1,4.4,20,1.2,2.4,1.3,5.2.2,7.6-.8,1.8-1.2,3.9-.9,6.2.7,4.5,4.3,8.3,8.8,9.1,2.6.4,5.1,0,7.2-1.2,1.7-.9,3.7,0,3.9,2l.6,8.6c.1,2,1.8,3.6,3.8,3.6h2v-7.7c0-1.2.9-2.1,2.1-2.1s2.1.9,2.1,2.1v7.7h4.5v-7.7c0-1.2.9-2.1,2.1-2.1s2.1.9,2.1,2.1v7.7h4.5v-7.7c0-1.2.9-2.1,2.1-2.1s2.1.9,2.1,2.1v7.7h2c2,0,3.7-1.6,3.8-3.5l.6-8.6c.1-1.9,2.2-2.9,3.9-2,2.1,1.2,4.6,1.6,7.2,1.2,4.5-.8,8.2-4.5,8.8-9.1.3-2.3,0-4.5-.9-6.3-1.1-2.3-.9-5.1.2-7.4h0ZM38.2,75.3h-1.1c-2.4,0-4.6-1-6.2-2.6s-2.6-3.8-2.6-6.2c0-3.6,2.9-6.5,6.5-6.5h10.7c1.1,0,2.1.4,2.8,1.2.7.7,1.2,1.7,1.2,2.8,0,6.2-5.1,11.3-11.3,11.3h0ZM58.1,86.9h-6.1c-1.8,0-3.1-1.8-2.4-3.6l1.8-4.6c.6-1.5,2.1-2.6,3.7-2.6s1.6.3,2.3.7c.7.4,1.2,1.1,1.5,1.9l1.8,4.6c.7,1.7-.6,3.6-2.4,3.6h0ZM79.2,72.7c-1.6,1.6-3.8,2.6-6.2,2.6h-1.1c-6.2,0-11.3-5.1-11.3-11.3s.5-2.1,1.2-2.8c.7-.7,1.7-1.2,2.8-1.2h10.7c3.6,0,6.5,2.9,6.5,6.5,0,2.4-1,4.6-2.6,6.2h0Z"/>
    </g>
  </g>
</svg>